<svg viewBox="0 0 48 48">
  <!-- bun bottom -->
  <path d="M7,42Q7,46 24,46Q41,46 41,42L41,38L7,38Z" fill="#FDE68A" stroke="#92400E" stroke-width="2.5" stroke-linejoin="round"/>
  <!-- lettuce -->
  <path d="M6,38Q9,34 14,36Q18,32 24,35Q30,32 34,36Q39,34 42,38Z" fill="#86EFAC" stroke="#166534" stroke-width="1.5" stroke-linejoin="round"/>
  <!-- tomato -->
  <rect x="9" y="31" width="30" height="5" rx="2.5" fill="#FCA5A5" stroke="#991B1B" stroke-width="1.5"/>
  <!-- patty -->
  <rect x="8" y="25" width="32" height="7" rx="3.5" fill="#92400E" stroke="#451A03" stroke-width="2.5"/>
  <!-- grill marks -->
  <line x1="16" y1="26" x2="14" y2="31" stroke="#451A03" stroke-width="1.5" stroke-linecap="round" opacity=".6"/>
  <line x1="24" y1="25.5" x2="22" y2="31" stroke="#451A03" stroke-width="1.5" stroke-linecap="round" opacity=".6"/>
  <line x1="32" y1="26" x2="30" y2="31" stroke="#451A03" stroke-width="1.5" stroke-linecap="round" opacity=".6"/>
  <!-- bun top -->
  <path d="M7,25Q7,14 24,12Q41,14 41,25Z" fill="#FBBF24" stroke="#92400E" stroke-width="2.5" stroke-linejoin="round"/>
  <!-- sesame -->
  <circle cx="19" cy="18" r="1.4" fill="#92400E" opacity=".55"/>
  <circle cx="26" cy="16" r="1.4" fill="#92400E" opacity=".55"/>
  <circle cx="32" cy="19" r="1.4" fill="#92400E" opacity=".55"/>
</svg>
